# xmcd
#
# Track frame offsets:
#	150
#	21297
#	34040
#	49850
#	67027
#	79162
#	91127
#	104635
#	118437
#	129310
#	142822
#	158117
#	172602
#	187185
#	197965
#	209102
#	224817
#	238037
#	250842
#	265412
#	280257
#	296640
#
# Disc length: 4271 seconds
#
# Revision: 0
# Processed by: cddbd v1.5.2PL0 Copyright (c) Steve Scherf et al.
# Submitted via: EZCDAudioConverter 2.0.5.1
#
DISCID=5d10ad16
DTITLE=Petula Clark - Anthologie - Volume 9 - 1972-1976
DYEAR=2002
DGENRE=Chanson francaise
TTITLE0=Comme une priere (The Simple Song)
TTITLE1=Comme chien et chat
TTITLE2=Pour aimer quelqu'un
TTITLE3=Flash-back
TTITLE4=Dans les yeux d'un homme
TTITLE5=Comme je t'aime mon amour
TTITLE6=Embrasse-moi pour ma fete (Life Is A Merry-Go-Round)
TTITLE7=Madame Poupee
TTITLE8=Je fais courir
TTITLE9=Un petit peu d'amour (Little Bit Of Lovin')
TTITLE10=Jour et nuit (Day By Day)
TTITLE11=Marie Desir (mixage 45 tours)
TTITLE12=Volodia de Varsovie
TTITLE13=Je fais courir (version alternative inedite) - bonus
TTITLE14=En juillet (Un refrain) (inedit) - bonus
TTITLE15=Pour aimer quelqu'un (version alternative inedite) - bonus
TTITLE16=My Guy - bonus
TTITLE17=Little Bit Of Lovin' - bonus
TTITLE18=What I Did For Love - bonus
TTITLE19=I Believe In Love - bonus
TTITLE20=Downtown '77 - bonus
TTITLE21=How Good It Is To Know You (inedit) - bonus
EXTD=
EXTT0=
EXTT1=
EXTT2=
EXTT3=
EXTT4=
EXTT5=
EXTT6=
EXTT7=
EXTT8=
EXTT9=
EXTT10=
EXTT11=
EXTT12=
EXTT13=
EXTT14=
EXTT15=
EXTT16=
EXTT17=
EXTT18=
EXTT19=
EXTT20=
EXTT21=
PLAYORDER=
